<svg width="206" height="48" viewBox="0 0 206 48" fill="none" xmlns="http://www.w3.org/2000/svg">
<g clip-path="url(#clip0_4_13667)">
<path d="M24 46C36.1506 46 46 36.1506 46 24C46 11.8494 36.1506 2 24 2C11.8494 2 2 11.8494 2 24C2 36.1506 11.8494 46 24 46Z" fill="#FFDBE2" stroke="#FFDBE2" stroke-width="4" stroke-linecap="round" stroke-linejoin="round"/>
<path d="M8 32.089V15H15.5191C16.8049 15 17.9848 15.2116 19.059 15.6347C20.1332 16.0579 21.069 16.6519 21.8665 17.4169C22.664 18.1655 23.2743 19.0607 23.6974 20.1023C24.1369 21.1439 24.3566 22.2913 24.3566 23.5445C24.3566 24.7814 24.1369 25.9288 23.6974 26.9867C23.2743 28.0283 22.664 28.9316 21.8665 29.6965C21.069 30.4452 20.1332 31.0311 19.059 31.4542C17.9848 31.8774 16.8049 32.089 15.5191 32.089H8ZM13.2732 28.8421L12.3699 27.597H15.3971C15.9342 27.597 16.4224 27.4994 16.8618 27.3041C17.3013 27.0925 17.6837 26.8077 18.0092 26.4496C18.3348 26.0915 18.587 25.6684 18.766 25.1801C18.9451 24.6756 19.0346 24.1304 19.0346 23.5445C19.0346 22.9586 18.9451 22.4215 18.766 21.9332C18.587 21.4287 18.3348 20.9974 18.0092 20.6394C17.6837 20.2813 17.3013 20.0046 16.8618 19.8093C16.4224 19.5977 15.9342 19.492 15.3971 19.492H12.2967L13.2732 18.2957V28.8421Z" fill="#EA163C"/>
<path d="M25.3359 32.089V28.6956L34.1001 17.1239L36.3461 19.7361H25.9707V15H39.2512V18.369L30.5359 29.965L28.2655 27.6458H39.5198V32.089H25.3359Z" fill="#EA163C"/>
</g>
<path d="M60.464 35V15.4H64.72L71.86 27.02L68.808 26.992L76.032 15.4H80.12V35H75.5V28.896C75.5 27.216 75.5373 25.704 75.612 24.36C75.7053 23.016 75.8547 21.6813 76.06 20.356L76.592 21.812L71.16 30.24H69.312L63.992 21.868L64.524 20.356C64.7293 21.6067 64.8693 22.8947 64.944 24.22C65.0373 25.5267 65.084 27.0853 65.084 28.896V35H60.464ZM93.558 35.28C92.0647 35.28 90.702 35.028 89.47 34.524C88.238 34.02 87.1647 33.3107 86.25 32.396C85.3354 31.4813 84.626 30.408 84.122 29.176C83.618 27.944 83.366 26.5907 83.366 25.116C83.366 23.6413 83.618 22.288 84.122 21.056C84.626 19.824 85.3354 18.7507 86.25 17.836C87.1647 16.9213 88.238 16.212 89.47 15.708C90.702 15.204 92.0554 14.952 93.53 14.952C95.0047 14.952 96.358 15.204 97.59 15.708C98.822 16.212 99.8954 16.9213 100.81 17.836C101.725 18.7507 102.425 19.824 102.91 21.056C103.414 22.288 103.666 23.6413 103.666 25.116C103.666 26.572 103.414 27.9253 102.91 29.176C102.425 30.408 101.725 31.4813 100.81 32.396C99.8954 33.3107 98.822 34.02 97.59 34.524C96.358 35.028 95.014 35.28 93.558 35.28ZM93.53 30.8C94.2954 30.8 94.9954 30.66 95.63 30.38C96.2834 30.1 96.8434 29.708 97.31 29.204C97.7954 28.6813 98.1687 28.0747 98.43 27.384C98.6914 26.6933 98.822 25.9373 98.822 25.116C98.822 24.2947 98.6914 23.5387 98.43 22.848C98.1687 22.1573 97.7954 21.56 97.31 21.056C96.8434 20.5333 96.2834 20.132 95.63 19.852C94.9954 19.572 94.2954 19.432 93.53 19.432C92.7647 19.432 92.0554 19.572 91.402 19.852C90.7674 20.132 90.2074 20.5333 89.722 21.056C89.2367 21.56 88.8634 22.1573 88.602 22.848C88.3594 23.5387 88.238 24.2947 88.238 25.116C88.238 25.9373 88.3594 26.7027 88.602 27.412C88.8634 28.1027 89.2367 28.7 89.722 29.204C90.2074 29.708 90.7674 30.1 91.402 30.38C92.0554 30.66 92.7647 30.8 93.53 30.8ZM115.189 35.168C113.565 35.168 112.118 34.8413 110.849 34.188C109.579 33.516 108.581 32.6013 107.853 31.444C107.143 30.2867 106.789 28.9613 106.789 27.468V15.4H111.605V27.216C111.605 27.9253 111.763 28.5693 112.081 29.148C112.398 29.708 112.827 30.156 113.369 30.492C113.91 30.8093 114.517 30.968 115.189 30.968C115.898 30.968 116.523 30.8093 117.065 30.492C117.625 30.156 118.073 29.708 118.409 29.148C118.745 28.5693 118.913 27.9253 118.913 27.216V15.4H123.561V27.468C123.561 28.9613 123.197 30.2867 122.469 31.444C121.759 32.6013 120.77 33.516 119.501 34.188C118.231 34.8413 116.794 35.168 115.189 35.168ZM140.071 35V15.4H144.831V35H140.071ZM127.919 35V15.4H132.679V35H127.919ZM129.767 27.356L129.795 23.1H142.591V27.356H129.767ZM146.827 35L154.583 15.4H158.615L166.315 35H161.499L157.803 25.06C157.654 24.668 157.504 24.248 157.355 23.8C157.206 23.352 157.056 22.8947 156.907 22.428C156.758 21.9427 156.608 21.476 156.459 21.028C156.328 20.5613 156.216 20.132 156.123 19.74L156.963 19.712C156.851 20.1787 156.72 20.636 156.571 21.084C156.44 21.532 156.3 21.98 156.151 22.428C156.02 22.8573 155.871 23.296 155.703 23.744C155.535 24.1733 155.376 24.6213 155.227 25.088L151.531 35H146.827ZM150.523 31.248L152.007 27.664H161.023L162.479 31.248H150.523ZM168.341 35V15.4H172.597L179.737 27.02L176.685 26.992L183.909 15.4H187.997V35H183.377V28.896C183.377 27.216 183.414 25.704 183.489 24.36C183.582 23.016 183.731 21.6813 183.937 20.356L184.469 21.812L179.037 30.24H177.189L171.869 21.868L172.401 20.356C172.606 21.6067 172.746 22.8947 172.821 24.22C172.914 25.5267 172.961 27.0853 172.961 28.896V35H168.341ZM192.111 35V30.996H195.415V19.404H192.111V15.4H203.507V19.404H200.175V30.996H203.507V35H192.111Z" fill="white"/>
<defs>
<clipPath id="clip0_4_13667">
<rect width="48" height="48" fill="white"/>
</clipPath>
</defs>
</svg>
